<svg viewBox="0 0 56 56" fill="none" xmlns="http://www.w3.org/2000/svg"><rect width="56" height="56" rx="16" fill="white"/><rect width="56" height="56" rx="16" fill="#D2F640"/><path d="M32.5559 16.5929L32.5228 16.5285C32.1718 15.8451 31.7829 15.088 31.3785 14.5229C30.9552 13.9315 29.9843 12.7894 28.2997 12.791C26.6151 12.7926 25.6465 13.9366 25.2243 14.5288C24.821 15.0947 24.4336 15.8525 24.0839 16.5366L24.0838 16.5367L24.0192 16.6631L10.499 43.0769H16.597L28.3069 20.1997L36.4174 35.9699H24.9042L22.1893 41.3981H37.4217L37.551 41.3982H37.551C38.2034 41.3986 38.9639 41.3991 39.5924 41.3057C40.2999 41.2006 41.5738 40.878 42.3571 39.5944C43.1403 38.3108 42.8447 37.0303 42.6145 36.3531C42.4101 35.7515 42.0619 35.0755 41.7631 34.4955L41.7631 34.4954L41.7039 34.3805L32.5877 16.6549L32.5559 16.5929Z" fill="black"/></svg>