<svg viewBox="0 0 24 24" fill="none" xmlns="http://www.w3.org/2000/svg"><g clip-path="url(#clip0_2034_573)"><path d="M12.2143 4.65929C14.6762 4.65929 14.9678 4.67009 15.936 4.71328C16.8358 4.75287 17.3217 4.90405 17.6457 5.03002C18.074 5.19559 18.3835 5.39715 18.7039 5.71749C19.0278 6.04143 19.2258 6.34738 19.3913 6.7757C19.5173 7.09964 19.6685 7.58915 19.7081 8.48538C19.7513 9.4572 19.7621 9.74874 19.7621 12.2071C19.7621 14.669 19.7513 14.9606 19.7081 15.9288C19.6685 16.8286 19.5173 17.3145 19.3913 17.6385C19.2258 18.0668 19.0242 18.3763 18.7039 18.6967C18.3799 19.0206 18.074 19.2186 17.6457 19.3842C17.3217 19.5101 16.8322 19.6613 15.936 19.7009C14.9642 19.7441 14.6726 19.7549 12.2143 19.7549C9.75234 19.7549 9.4608 19.7441 8.49258 19.7009C7.59275 19.6613 7.10684 19.5101 6.7829 19.3842C6.35458 19.2186 6.04503 19.017 5.72469 18.6967C5.40075 18.3727 5.20279 18.0668 5.03722 17.6385C4.91124 17.3145 4.76007 16.825 4.72048 15.9288C4.67729 14.957 4.66649 14.6654 4.66649 12.2071C4.66649 9.74515 4.67729 9.4536 4.72048 8.48538C4.76007 7.58555 4.91124 7.09964 5.03722 6.7757C5.20279 6.34738 5.40435 6.03783 5.72469 5.71749C6.04863 5.39355 6.35458 5.19559 6.7829 5.03002C7.10684 4.90405 7.59634 4.75287 8.49258 4.71328C9.4608 4.67009 9.75234 4.65929 12.2143 4.65929ZM12.2143 3C9.71275 3 9.39961 3.0108 8.41699 3.05399C7.43797 3.09718 6.7649 3.25555 6.18181 3.48231C5.57352 3.71987 5.05882 4.03301 4.54771 4.54771C4.03301 5.05882 3.71987 5.57352 3.48231 6.17821C3.25555 6.7649 3.09718 7.43437 3.05399 8.41339C3.0108 9.39961 3 9.71275 3 12.2143C3 14.7158 3.0108 15.029 3.05399 16.0116C3.09718 16.9906 3.25555 17.6637 3.48231 18.2468C3.71987 18.8551 4.03301 19.3698 4.54771 19.8809C5.05882 20.392 5.57352 20.7087 6.17821 20.9427C6.7649 21.1694 7.43437 21.3278 8.41339 21.371C9.39601 21.4142 9.70915 21.425 12.2107 21.425C14.7122 21.425 15.0254 21.4142 16.008 21.371C16.987 21.3278 17.6601 21.1694 18.2432 20.9427C18.8479 20.7087 19.3626 20.392 19.8737 19.8809C20.3848 19.3698 20.7015 18.8551 20.9355 18.2504C21.1622 17.6637 21.3206 16.9942 21.3638 16.0152C21.407 15.0326 21.4178 14.7194 21.4178 12.2179C21.4178 9.71635 21.407 9.40321 21.3638 8.42059C21.3206 7.44157 21.1622 6.7685 20.9355 6.18541C20.7087 5.57352 20.3956 5.05882 19.8809 4.54771C19.3698 4.03661 18.8551 3.71987 18.2504 3.48591C17.6637 3.25915 16.9942 3.10078 16.0152 3.05759C15.029 3.0108 14.7158 3 12.2143 3Z" fill="white"/><path d="M12.2136 7.47656C9.60047 7.47656 7.48047 9.59657 7.48047 12.2097C7.48047 14.8228 9.60047 16.9428 12.2136 16.9428C14.8267 16.9428 16.9467 14.8228 16.9467 12.2097C16.9467 9.59657 14.8267 7.47656 12.2136 7.47656ZM12.2136 15.2799C10.5183 15.2799 9.14336 13.905 9.14336 12.2097C9.14336 10.5144 10.5183 9.13945 12.2136 9.13945C13.9089 9.13945 15.2838 10.5144 15.2838 12.2097C15.2838 13.905 13.9089 15.2799 12.2136 15.2799Z" fill="white"/><path d="M18.2412 7.2925C18.2412 7.90438 17.7445 8.39749 17.1362 8.39749C16.5244 8.39749 16.0312 7.90078 16.0312 7.2925C16.0312 6.68061 16.528 6.1875 17.1362 6.1875C17.7445 6.1875 18.2412 6.68421 18.2412 7.2925Z" fill="white"/></g><defs><clipPath id="clip0_2034_573"><rect width="18.4286" height="18.4286" fill="white" transform="translate(3 3)"/></clipPath></defs></svg>