<svg viewBox="0 0 64 64" fill="none" xmlns="http://www.w3.org/2000/svg"><path d="M35.1425 35.9761C37.1467 35.429 38.9418 34.3671 40.3724 32.9503C42.52 30.8237 43.8521 27.8895 43.8521 24.6595V11.7367C43.8521 8.50671 42.52 5.57257 40.3724 3.44588C38.2249 1.3192 35.2619 0 32.0003 0C28.7417 0 25.7757 1.3192 23.6281 3.44588C21.4806 5.57257 20.1484 8.50971 20.1484 11.7367V24.6565C20.1484 27.8865 21.4806 30.8207 23.6281 32.9474C25.2978 34.6008 27.4573 35.7662 29.8677 36.2039C31.3253 36.4701 33.7984 36.3429 35.1425 35.9761ZM31.8659 27.2299C33.1054 27.2299 34.121 26.2242 34.121 24.9967V22.6955C34.121 21.468 33.1054 20.4623 31.8659 20.4623C30.6263 20.4623 29.6108 21.468 29.6108 22.6955V24.9967C29.6108 26.2242 30.6233 27.2299 31.8659 27.2299ZM38.3922 30.9893C36.7524 32.6131 34.4883 33.6247 32.0003 33.6247C29.5123 33.6247 27.2512 32.6161 25.6084 30.9893C23.9686 29.3654 22.9471 27.1234 22.9471 24.6595V11.7367C22.9471 9.27281 23.9656 7.03373 25.6084 5.40693C27.2482 3.78307 29.5123 2.77149 32.0003 2.77149C34.4883 2.77149 36.7494 3.78012 38.3922 5.40693C40.032 7.03078 41.0534 9.27281 41.0534 11.7367V24.6565C41.0534 27.1234 40.035 29.3625 38.3922 30.9893Z" fill="white" fill-opacity="0.74"/><path d="M43.2597 49.9552L42.6117 49.3076L32.3955 59.5234L22.1792 49.3076L21.5312 49.9552L32.3955 60.8194L43.2597 49.9552Z" fill="white" fill-opacity="0.74"/><path d="M43.2597 44.9141L42.6117 44.2666L32.3955 54.4824L22.1792 44.2666L21.5312 44.9141L32.3955 55.7784L43.2597 44.9141Z" fill="white" fill-opacity="0.74"/></svg>