<svg viewBox="0 0 24 24" fill="none" xmlns="http://www.w3.org/2000/svg"><path d="M21.4214 6.24395C21.166 8.76216 20.061 14.8731 19.4986 17.6935C19.2607 18.8869 18.7923 19.2871 18.3389 19.3262C17.3535 19.4114 16.6051 18.7151 15.6506 18.1279C14.157 17.2091 13.3132 16.6371 11.8634 15.7406C10.188 14.7045 11.2741 14.1352 12.2289 13.2041C12.4788 12.9605 16.8209 9.25417 16.9049 8.91794C16.9154 8.87588 16.9254 8.71888 16.8259 8.63642C16.7265 8.55397 16.5803 8.5819 16.4746 8.60432C16.3248 8.63625 13.9388 10.1162 9.31654 13.0443C8.63933 13.4807 8.02591 13.6933 7.47625 13.6822C6.87033 13.6699 5.70481 13.3607 4.83832 13.0964C3.77557 12.7722 2.93091 12.6008 3.00447 12.0502C3.04278 11.7634 3.46361 11.4702 4.26695 11.1705C9.21406 9.14779 12.5129 7.81425 14.1634 7.16987C18.8762 5.3303 19.8554 5.01076 20.4937 5.0001C20.6341 4.99792 20.948 5.03054 21.1513 5.18536C21.2865 5.29565 21.3727 5.44956 21.3929 5.61663C21.4273 5.82408 21.4369 6.0345 21.4214 6.24395Z" fill="white"/></svg>