<svg viewBox="0 0 84 84" fill="none" xmlns="http://www.w3.org/2000/svg"><path d="M35.6375 6.3452C33.0626 5.65847 30.1619 6.87092 28.4955 9.60913C27.8431 10.7655 27.3786 11.9749 26.9316 13.1407L26.5222 14.1999C25.0975 17.7202 20.284 35.5979 19.7423 39.3823L19.5554 40.5433C19.3596 41.7136 19.1552 42.925 19.1448 44.2725C19.2146 47.465 21.0082 50.0028 23.6322 50.7026C23.715 50.7247 23.7977 50.7466 23.8915 50.7688C25.3407 51.1553 27.1565 50.6865 28.2581 50.1492L38.913 45.2211L43.3816 46.4136C46.8312 47.3337 50.0288 45.511 51.5263 41.7718C53.0937 38.0513 54.774 31.3997 55.2944 27.777C55.7788 23.9891 53.8157 20.7507 50.5268 19.8733L46.057 18.6814L39.4424 9.26079C38.6532 8.09172 37.075 6.72308 35.6375 6.3452ZM15.9209 9.14806C15.3797 8.46817 14.4024 8.40318 13.7465 8.99432C10.1591 12.2108 7.38271 16.9556 5.93165 22.3488C4.47969 27.7456 4.50202 33.2355 5.99389 37.8075C6.15615 38.3068 6.54442 38.6841 7.03166 38.8142C7.3338 38.8948 7.65203 38.8754 7.95293 38.7578C8.76014 38.4357 9.19227 37.4929 8.91998 36.6518C7.63021 32.6945 7.62379 27.8959 8.90286 23.1417C10.1815 18.3894 12.5958 14.2368 15.6995 11.4521C16.357 10.8611 16.4565 9.82849 15.9209 9.14806ZM20.0489 15.4257C19.4814 14.741 18.4753 14.6643 17.7991 15.2518C15.4244 17.3137 13.6008 20.3587 12.6676 23.827C11.7344 27.2952 11.7848 30.8398 12.806 33.8076C12.9799 34.3097 13.3829 34.6903 13.8874 34.825C14.2001 34.9084 14.5301 34.8919 14.8398 34.7769C15.6707 34.4615 16.1097 33.5197 15.8186 32.676C15.0099 30.3252 14.9833 27.4731 15.7438 24.647C16.5047 21.8192 17.9587 19.364 19.8393 17.7309C20.5149 17.1452 20.6083 16.1121 20.0489 15.4257Z" fill="url(#paint0_linear_2034_388)"/><mask id="path-2-outside-1_2034_388" maskUnits="userSpaceOnUse" x="14.549" y="17.9661" width="71.2936" height="68.3246" fill="black"><rect fill="white" x="14.549" y="17.9661" width="71.2936" height="68.3246"/><path d="M43.7957 27.444C46.6612 26.6797 49.8891 28.0288 51.7436 31.076C52.4696 32.3628 52.9862 33.7091 53.4836 35.0064L53.9403 36.1853C55.5259 40.1031 60.8823 59.9994 61.4851 64.2109L61.6943 65.5034C61.9122 66.8058 62.1387 68.1537 62.1503 69.6531C62.0726 73.2061 60.0764 76.0299 57.1562 76.8088C57.0642 76.8333 56.972 76.8581 56.8677 76.8828C55.2549 77.3129 53.234 76.7915 52.0081 76.1935L40.1507 70.709L35.1771 72.0354C31.338 73.0593 27.7794 71.0312 26.1127 66.8698C24.3684 62.7291 22.4985 55.326 21.9195 51.2945C21.3805 47.0788 23.5654 43.4752 27.2258 42.499L32.1995 41.1727L39.5606 30.6887C40.4388 29.3875 42.1957 27.8645 43.7957 27.444ZM65.7373 30.5597C66.3397 29.8031 67.4271 29.7309 68.1569 30.389C72.1495 33.9687 75.239 39.2493 76.8539 45.2516C78.4698 51.2579 78.4453 57.3674 76.7849 62.4556C76.6043 63.0112 76.1721 63.4308 75.6299 63.5755C75.2937 63.6652 74.9395 63.6433 74.6047 63.5125C73.7063 63.154 73.2252 62.1048 73.5282 61.1688C74.9636 56.7648 74.9711 51.4248 73.5477 46.1339C72.1247 40.8449 69.4375 36.2232 65.9833 33.124C65.2516 32.4662 65.1412 31.3169 65.7373 30.5597ZM61.1452 37.5444C61.7768 36.7824 62.8972 36.6972 63.6498 37.351C66.2924 39.6456 68.3214 43.034 69.3601 46.8937C70.3987 50.7537 70.3432 54.6991 69.2066 58.0022C69.0131 58.561 68.5649 58.9851 68.0035 59.1349C67.6553 59.2278 67.287 59.2087 66.9422 59.0806C66.0178 58.7294 65.5305 57.6817 65.8542 56.743C66.7542 54.1267 66.7832 50.9524 65.9369 47.8072C65.0901 44.6602 63.4717 41.9286 61.3786 40.111C60.6267 39.4592 60.5227 38.3083 61.1452 37.5444Z"/></mask><path d="M43.7957 27.444C46.6612 26.6797 49.8891 28.0288 51.7436 31.076C52.4696 32.3628 52.9862 33.7091 53.4836 35.0064L53.9403 36.1853C55.5259 40.1031 60.8823 59.9994 61.4851 64.2109L61.6943 65.5034C61.9122 66.8058 62.1387 68.1537 62.1503 69.6531C62.0726 73.2061 60.0764 76.0299 57.1562 76.8088C57.0642 76.8333 56.972 76.8581 56.8677 76.8828C55.2549 77.3129 53.234 76.7915 52.0081 76.1935L40.1507 70.709L35.1771 72.0354C31.338 73.0593 27.7794 71.0312 26.1127 66.8698C24.3684 62.7291 22.4985 55.326 21.9195 51.2945C21.3805 47.0788 23.5654 43.4752 27.2258 42.499L32.1995 41.1727L39.5606 30.6887C40.4388 29.3875 42.1957 27.8645 43.7957 27.444ZM65.7373 30.5597C66.3397 29.8031 67.4271 29.7309 68.1569 30.389C72.1495 33.9687 75.239 39.2493 76.8539 45.2516C78.4698 51.2579 78.4453 57.3674 76.7849 62.4556C76.6043 63.0112 76.1721 63.4308 75.6299 63.5755C75.2937 63.6652 74.9395 63.6433 74.6047 63.5125C73.7063 63.154 73.2252 62.1048 73.5282 61.1688C74.9636 56.7648 74.9711 51.4248 73.5477 46.1339C72.1247 40.8449 69.4375 36.2232 65.9833 33.124C65.2516 32.4662 65.1412 31.3169 65.7373 30.5597ZM61.1452 37.5444C61.7768 36.7824 62.8972 36.6972 63.6498 37.351C66.2924 39.6456 68.3214 43.034 69.3601 46.8937C70.3987 50.7537 70.3432 54.6991 69.2066 58.0022C69.0131 58.561 68.5649 58.9851 68.0035 59.1349C67.6553 59.2278 67.287 59.2087 66.9422 59.0806C66.0178 58.7294 65.5305 57.6817 65.8542 56.743C66.7542 54.1267 66.7832 50.9524 65.9369 47.8072C65.0901 44.6602 63.4717 41.9286 61.3786 40.111C60.6267 39.4592 60.5227 38.3083 61.1452 37.5444Z" fill="url(#paint1_linear_2034_388)" fill-opacity="0.35"/><path d="M43.7957 27.444L44.193 28.9437L44.1985 28.9422L43.7957 27.444ZM51.7436 31.076L53.0954 30.3164C53.087 30.3015 53.0784 30.2868 53.0695 30.2722L51.7436 31.076ZM53.4836 35.0064L52.0342 35.5588L52.0361 35.5638L53.4836 35.0064ZM53.9403 36.1853L52.4928 36.7428C52.4956 36.75 52.4985 36.7572 52.5014 36.7644L53.9403 36.1853ZM61.4851 64.2109L59.9485 64.4278C59.9499 64.4372 59.9513 64.4465 59.9528 64.4558L61.4851 64.2109ZM61.6943 65.5034L60.162 65.7483L60.1633 65.7565L61.6943 65.5034ZM62.1503 69.6531L63.7022 69.6897C63.7025 69.6744 63.7026 69.6591 63.7025 69.6438L62.1503 69.6531ZM57.1562 76.8088L57.559 78.307L57.5591 78.307L57.1562 76.8088ZM56.8677 76.8828L56.5075 75.3738C56.4932 75.3772 56.479 75.3807 56.4648 75.3845L56.8677 76.8828ZM52.0081 76.1935L52.6872 74.8003C52.6776 74.7957 52.6679 74.7911 52.6582 74.7866L52.0081 76.1935ZM40.1507 70.709L40.8009 69.3021C40.4712 69.1496 40.0986 69.1173 39.748 69.2108L40.1507 70.709ZM35.1771 72.0354L34.7743 70.5371L34.7743 70.5371L35.1771 72.0354ZM26.1127 66.8698L27.5538 66.2959C27.5503 66.2874 27.5468 66.2789 27.5433 66.2704L26.1127 66.8698ZM21.9195 51.2945L20.3798 51.4883C20.3808 51.4962 20.3819 51.5042 20.383 51.5121L21.9195 51.2945ZM27.2258 42.499L26.8231 41.0007L26.823 41.0007L27.2258 42.499ZM32.1995 41.1727L32.6023 42.6709C32.9542 42.577 33.2617 42.3624 33.4708 42.0646L32.1995 41.1727ZM39.5606 30.6887L40.8319 31.5806C40.8373 31.5728 40.8427 31.565 40.848 31.5571L39.5606 30.6887ZM65.7373 30.5597L64.5219 29.5931L64.5166 29.5998L65.7373 30.5597ZM68.1569 30.389L67.1181 31.5393L67.1213 31.5422L68.1569 30.389ZM76.8539 45.2516L78.3528 44.8516L78.3528 44.8515L76.8539 45.2516ZM76.7849 62.4556L75.309 61.9726L75.3084 61.9744L76.7849 62.4556ZM75.6299 63.5755L76.0329 65.0736L76.0329 65.0736L75.6299 63.5755ZM74.6047 63.5125L74.0311 64.9524L74.0416 64.9565L74.6047 63.5125ZM73.5282 61.1688L72.0522 60.6864L72.0512 60.6893L73.5282 61.1688ZM73.5477 46.1339L75.0467 45.7339L75.0467 45.7339L73.5477 46.1339ZM65.9833 33.124L64.9461 34.2759L64.9472 34.2768L65.9833 33.124ZM61.1452 37.5444L59.9489 36.5542L59.9408 36.5641L61.1452 37.5444ZM63.6498 37.351L62.6323 38.5203L62.6327 38.5206L63.6498 37.351ZM69.3601 46.8937L70.859 46.4936L70.859 46.4935L69.3601 46.8937ZM69.2066 58.0022L70.6736 58.5115L70.6746 58.5086L69.2066 58.0022ZM68.0035 59.1349L68.4065 60.6331L68.4065 60.6331L68.0035 59.1349ZM66.9422 59.0806L66.3926 60.5299L66.4032 60.5338L66.9422 59.0806ZM65.8542 56.743L67.3218 57.2504L67.3222 57.2493L65.8542 56.743ZM65.9369 47.8072L67.4359 47.4071L67.4359 47.4071L65.9369 47.8072ZM61.3786 40.111L62.3958 38.9415L62.3947 38.9405L61.3786 40.111ZM43.7957 27.444L44.1985 28.9422C46.3069 28.3799 48.8701 29.3371 50.4176 31.8799L51.7436 31.076L53.0695 30.2722C50.9081 26.7206 47.0155 24.9796 43.3928 25.9457L43.7957 27.444ZM51.7436 31.076L50.3917 31.8357C51.0525 33.0068 51.5311 34.2467 52.0342 35.5588L53.4836 35.0064L54.933 34.4539C54.4413 33.1715 53.8868 31.7188 53.0954 30.3164L51.7436 31.076ZM53.4836 35.0064L52.0361 35.5638L52.4928 36.7428L53.9403 36.1853L55.3878 35.6278L54.931 34.4489L53.4836 35.0064ZM53.9403 36.1853L52.5014 36.7644C53.2509 38.6162 54.9609 44.4653 56.5823 50.4883C58.2036 56.5106 59.6634 62.4355 59.9485 64.4278L61.4851 64.2109L63.0217 63.9941C62.7041 61.7749 61.1842 55.6459 59.5802 49.6877C57.9763 43.7302 56.2153 37.6722 55.3792 35.6062L53.9403 36.1853ZM61.4851 64.2109L59.9528 64.4558L60.162 65.7483L61.6943 65.5034L63.2266 65.2586L63.0174 63.9661L61.4851 64.2109ZM61.6943 65.5034L60.1633 65.7565C60.3832 67.0709 60.5876 68.3031 60.5981 69.6625L62.1503 69.6531L63.7025 69.6438C63.6897 68.0042 63.4411 66.5408 63.2253 65.2504L61.6943 65.5034ZM62.1503 69.6531L60.5985 69.6166C60.5326 72.6282 58.8752 74.7446 56.7533 75.3106L57.1562 76.8088L57.5591 78.307C61.2775 77.3151 63.6126 73.784 63.7022 69.6897L62.1503 69.6531ZM57.1562 76.8088L56.7534 75.3105C56.6573 75.3362 56.5867 75.3551 56.5075 75.3738L56.8677 76.8828L57.2278 78.3917C57.3572 78.3611 57.471 78.3305 57.559 78.307L57.1562 76.8088ZM56.8677 76.8828L56.4648 75.3845C55.3614 75.6788 53.7465 75.317 52.6872 74.8003L52.0081 76.1935L51.329 77.5867C52.7216 78.266 55.1483 78.947 57.2705 78.381L56.8677 76.8828ZM52.0081 76.1935L52.6582 74.7866L40.8009 69.3021L40.1507 70.709L39.5006 72.116L51.3579 77.6005L52.0081 76.1935ZM40.1507 70.709L39.748 69.2108L34.7743 70.5371L35.1771 72.0354L35.5798 73.5336L40.5535 72.2073L40.1507 70.709ZM35.1771 72.0354L34.7743 70.5371C31.8329 71.3216 28.9846 69.8687 27.5538 66.2959L26.1127 66.8698L24.6717 67.4436C26.5741 72.1937 30.843 74.7969 35.5799 73.5336L35.1771 72.0354ZM26.1127 66.8698L27.5433 66.2704C25.8602 62.2752 24.0201 55.0047 23.456 51.0769L21.9195 51.2945L20.383 51.5121C20.9769 55.6472 22.8766 63.183 24.6822 67.4692L26.1127 66.8698ZM21.9195 51.2945L23.4592 51.1007C23.0014 47.5201 24.8418 44.7405 27.6286 43.9972L27.2258 42.499L26.823 41.0007C22.289 42.21 19.7597 46.6376 20.3798 51.4883L21.9195 51.2945ZM27.2258 42.499L27.6286 43.9972L32.6023 42.6709L32.1995 41.1727L31.7967 39.6744L26.8231 41.0007L27.2258 42.499ZM32.1995 41.1727L33.4708 42.0646L40.8319 31.5806L39.5606 30.6887L38.2893 29.7967L30.9282 40.2807L32.1995 41.1727ZM39.5606 30.6887L40.848 31.5571C41.1882 31.0532 41.7341 30.4603 42.3758 29.9496C43.027 29.4315 43.6736 29.0802 44.193 28.9437L43.7957 27.444L43.3983 25.9443C42.3178 26.2283 41.286 26.8486 40.4391 27.5225C39.5829 28.2038 38.8112 29.023 38.2731 29.8202L39.5606 30.6887ZM65.7373 30.5597L66.9528 31.5263C66.9681 31.507 66.9795 31.5001 66.9848 31.4974C66.9913 31.494 66.9991 31.4915 67.0094 31.4908C67.0263 31.4896 67.066 31.4924 67.1181 31.5393L68.1569 30.389L69.1958 29.2387C67.8285 28.0058 65.7038 28.1087 64.5219 29.5931L65.7373 30.5597ZM68.1569 30.389L67.1213 31.5422C70.8554 34.8902 73.8053 39.8921 75.3549 45.6516L76.8539 45.2516L78.3528 44.8515C76.6727 38.6065 73.4435 33.0471 69.1926 29.2358L68.1569 30.389ZM76.8539 45.2516L75.3549 45.6516C76.9055 51.4153 76.862 57.2138 75.309 61.9726L76.7849 62.4556L78.2607 62.9386C80.0287 57.5209 80.034 51.1004 78.3528 44.8516L76.8539 45.2516ZM76.7849 62.4556L75.3084 61.9744C75.2814 62.0575 75.2354 62.075 75.2268 62.0773L75.6299 63.5755L76.0329 65.0736C77.1088 64.7865 77.9271 63.9649 78.2613 62.9368L76.7849 62.4556ZM75.6299 63.5755L75.2269 62.0773C75.2213 62.0788 75.2162 62.0793 75.2095 62.0789C75.2027 62.0785 75.1889 62.0767 75.1678 62.0684L74.6047 63.5125L74.0416 64.9565C74.6734 65.2033 75.3658 65.2516 76.0329 65.0736L75.6299 63.5755ZM74.6047 63.5125L75.1783 62.0726C75.1314 62.0539 75.0695 62.0063 75.0266 61.9128C74.9837 61.8192 74.9808 61.7237 75.0052 61.6483L73.5282 61.1688L72.0512 60.6893C71.5051 62.3763 72.3481 64.2808 74.0311 64.9524L74.6047 63.5125ZM73.5282 61.1688L75.0042 61.6512C76.5485 56.9132 76.5338 51.2616 75.0467 45.7339L73.5477 46.1339L72.0487 46.534C73.4084 51.588 73.3787 56.6163 72.0522 60.6864L73.5282 61.1688ZM73.5477 46.1339L75.0467 45.7339C73.56 40.2081 70.7355 35.3054 67.0194 31.9711L65.9833 33.124L64.9472 34.2768C68.1394 37.141 70.6895 41.4817 72.0487 46.534L73.5477 46.1339ZM65.9833 33.124L67.0204 31.9721C66.9632 31.9206 66.9174 31.8373 66.9075 31.7339C66.8976 31.6305 66.9277 31.5582 66.9581 31.5195L65.7373 30.5597L64.5166 29.5998C63.4 31.0182 63.6251 33.0883 64.9461 34.2759L65.9833 33.124ZM61.1452 37.5444L62.3415 38.5345C62.3816 38.4862 62.4272 38.4664 62.4738 38.4628C62.5211 38.4592 62.5768 38.4721 62.6323 38.5203L63.6498 37.351L64.6672 36.1817C63.2654 34.9638 61.1437 35.1127 59.949 36.5542L61.1452 37.5444ZM63.6498 37.351L62.6327 38.5206C65.0097 40.5846 66.8911 43.6892 67.8611 47.2938L69.3601 46.8937L70.859 46.4935C69.7517 42.3788 67.5751 38.7066 64.6668 36.1814L63.6498 37.351ZM69.3601 46.8937L67.8611 47.2938C68.8312 50.8988 68.7609 54.5249 67.7386 57.4958L69.2066 58.0022L70.6746 58.5086C71.9255 54.8734 71.9663 50.6086 70.859 46.4936L69.3601 46.8937ZM69.2066 58.0022L67.7396 57.493C67.7088 57.5817 67.6487 57.6239 67.6005 57.6367L68.0035 59.1349L68.4065 60.6331C69.4811 60.3463 70.3173 59.5403 70.6736 58.5115L69.2066 58.0022ZM68.0035 59.1349L67.6005 57.6367C67.5708 57.6446 67.5316 57.6461 67.4811 57.6273L66.9422 59.0806L66.4032 60.5338C67.0423 60.7713 67.7397 60.811 68.4065 60.6331L68.0035 59.1349ZM66.9422 59.0806L67.4918 57.6313C67.4319 57.6086 67.3743 57.5595 67.3375 57.4804C67.3006 57.4012 67.2979 57.3198 67.3218 57.2504L65.8542 56.743L64.3865 56.2356C63.7927 57.9576 64.6751 59.8773 66.3926 60.5298L66.9422 59.0806ZM65.8542 56.743L67.3222 57.2493C68.3395 54.2922 68.348 50.7969 67.4359 47.4071L65.9369 47.8072L64.438 48.2073C65.2185 51.1079 65.1689 53.9613 64.3861 56.2367L65.8542 56.743ZM65.9369 47.8072L67.4359 47.4071C66.5231 44.0151 64.7612 40.9956 62.3958 38.9415L61.3786 40.111L60.3615 41.2805C62.1821 42.8615 63.657 45.3052 64.438 48.2073L65.9369 47.8072ZM61.3786 40.111L62.3947 38.9405C62.3392 38.8924 62.3004 38.8202 62.2924 38.7324C62.2844 38.6446 62.31 38.5733 62.3497 38.5246L61.1452 37.5444L59.9408 36.5641C58.7837 37.9841 58.9836 40.0862 60.3626 41.2815L61.3786 40.111Z" fill="url(#paint2_linear_2034_388)" mask="url(#path-2-outside-1_2034_388)"/><defs><linearGradient id="paint0_linear_2034_388" x1="35.8262" y1="6.39557" x2="23.9773" y2="50.7948" gradientUnits="userSpaceOnUse"><stop stop-color="#BAB9FF"/><stop offset="1" stop-color="#6074F1"/></linearGradient><linearGradient id="paint1_linear_2034_388" x1="43.5852" y1="27.5001" x2="56.7717" y2="76.9114" gradientUnits="userSpaceOnUse"><stop stop-color="#BAB9FF"/><stop offset="1" stop-color="#6074F1"/></linearGradient><linearGradient id="paint2_linear_2034_388" x1="27.0124" y1="38.0894" x2="69.0448" y2="71.0862" gradientUnits="userSpaceOnUse"><stop stop-color="white" stop-opacity="0.25"/><stop offset="1" stop-color="white" stop-opacity="0"/></linearGradient></defs></svg>