<svg viewBox="0 0 138 101" fill="none" xmlns="http://www.w3.org/2000/svg"><path d="M42.2579 7.52262C39.2047 6.70852 35.7659 8.1454 33.79 11.392C33.0163 12.7631 32.4652 14.1974 31.9351 15.5797L31.4495 16.8359C29.7601 21.0101 24.0533 42.208 23.4109 46.6956L23.1881 48.0724C22.9559 49.4602 22.7138 50.8961 22.7014 52.4939C22.7841 56.2796 24.9115 59.2891 28.0232 60.1189C28.1213 60.1451 28.2197 60.1707 28.3308 60.197C30.0493 60.6552 32.2019 60.0992 33.5081 59.4621L46.1427 53.6189L51.4419 55.032C55.5325 56.1229 59.325 53.9625 61.1008 49.5287C62.9594 45.117 64.9506 37.2291 65.5676 32.9338C66.1419 28.4424 63.8146 24.6031 59.9146 23.5628L54.6145 22.1494L46.7705 10.9798C45.8347 9.59334 43.9627 7.97055 42.2579 7.52262ZM18.8792 10.8444C18.2375 10.0381 17.0776 9.96131 16.2998 10.6624C12.0458 14.4764 8.75411 20.1029 7.03346 26.4981C5.31165 32.8975 5.33839 39.407 7.10766 44.8283C7.30012 45.4203 7.76018 45.8677 8.33788 46.0218C8.69603 46.1173 9.07332 46.0938 9.42999 45.9545C10.3871 45.5726 10.8998 44.455 10.577 43.4578C9.04748 38.7654 9.03989 33.0756 10.5567 27.4383C12.0728 21.803 14.9358 16.8791 18.6163 13.577C19.3959 12.8762 19.5143 11.6512 18.8792 10.8444ZM23.7727 18.2874C23.0997 17.4755 21.9064 17.3852 21.1046 18.0818C18.2887 20.5266 16.1264 24.1367 15.0197 28.2492C13.913 32.3619 13.9728 36.565 15.1839 40.0843C15.3901 40.6796 15.8672 41.1308 16.4653 41.2904C16.8364 41.3894 17.2288 41.3699 17.5961 41.2334C18.5812 40.8591 19.101 39.7423 18.7559 38.7421C17.7969 35.9547 17.7658 32.5736 18.6675 29.2227C19.5698 25.8696 21.2934 22.9583 23.5235 21.0217C24.3247 20.3272 24.436 19.1014 23.7727 18.2874Z" fill="url(#paint0_linear_2034_888)"/><mask id="path-2-outside-1_2034_888" maskUnits="userSpaceOnUse" x="34.423" y="1.50227" width="106.329" height="101.874" fill="black"><rect fill="white" x="34.423" y="1.50227" width="106.329" height="101.874"/><path d="M77.6484 14.7267C82.0088 13.564 86.9199 15.6168 89.7417 20.2535C90.8466 22.2116 91.6334 24.2597 92.3903 26.2337L93.0842 28.0276C95.4971 33.9892 103.647 64.2625 104.564 70.6705L104.883 72.6363C105.214 74.6181 105.559 76.6683 105.577 78.95C105.459 84.3564 102.421 88.6541 97.9773 89.8392C97.8372 89.8765 97.6971 89.9137 97.5383 89.9513C95.0843 90.6057 92.0102 89.812 90.1447 88.9022L72.1012 80.5575L64.5328 82.5762C58.6911 84.134 53.2758 81.0481 50.7398 74.7164C48.0855 68.4161 45.2407 57.1515 44.3596 51.0172C43.5393 44.6026 46.8643 39.1196 52.4343 37.6341L60.0027 35.6155L71.2039 19.6637C72.5404 17.6838 75.2138 15.3664 77.6484 14.7267ZM111.033 19.4677C111.95 18.3164 113.606 18.207 114.716 19.2085C120.792 24.6552 125.492 32.69 127.95 41.8228C130.408 50.9617 130.371 60.2575 127.844 67.9996C127.57 68.845 126.912 69.4834 126.087 69.7036C125.576 69.8402 125.037 69.8066 124.527 69.6075C123.16 69.0621 122.429 67.4671 122.89 66.043C125.074 59.3419 125.085 51.216 122.919 43.1654C120.753 35.1178 116.665 28.0857 111.409 23.37C110.295 22.3692 110.126 20.6199 111.033 19.4677ZM104.047 30.098C105.008 28.9386 106.713 28.8091 107.858 29.8039C111.879 33.2952 114.966 38.4511 116.547 44.324C118.127 50.1973 118.042 56.2004 116.313 61.2263C116.018 62.0763 115.337 62.7208 114.483 62.9488C113.953 63.0902 113.393 63.0622 112.868 62.8672C111.461 62.3329 110.719 60.7381 111.212 59.3097C112.581 55.3288 112.625 50.4998 111.337 45.7142C110.049 40.9255 107.587 36.7684 104.402 34.0028C103.258 33.011 103.1 31.2604 104.047 30.098Z"/></mask><path d="M77.6484 14.7267C82.0088 13.564 86.9199 15.6168 89.7417 20.2535C90.8466 22.2116 91.6334 24.2597 92.3903 26.2337L93.0842 28.0276C95.4971 33.9892 103.647 64.2625 104.564 70.6705L104.883 72.6363C105.214 74.6181 105.559 76.6683 105.577 78.95C105.459 84.3564 102.421 88.6541 97.9773 89.8392C97.8372 89.8765 97.6971 89.9137 97.5383 89.9513C95.0843 90.6057 92.0102 89.812 90.1447 88.9022L72.1012 80.5575L64.5328 82.5762C58.6911 84.134 53.2758 81.0481 50.7398 74.7164C48.0855 68.4161 45.2407 57.1515 44.3596 51.0172C43.5393 44.6026 46.8643 39.1196 52.4343 37.6341L60.0027 35.6155L71.2039 19.6637C72.5404 17.6838 75.2138 15.3664 77.6484 14.7267ZM111.033 19.4677C111.95 18.3164 113.606 18.207 114.716 19.2085C120.792 24.6552 125.492 32.69 127.95 41.8228C130.408 50.9617 130.371 60.2575 127.844 67.9996C127.57 68.845 126.912 69.4834 126.087 69.7036C125.576 69.8402 125.037 69.8066 124.527 69.6075C123.16 69.0621 122.429 67.4671 122.89 66.043C125.074 59.3419 125.085 51.216 122.919 43.1654C120.753 35.1178 116.665 28.0857 111.409 23.37C110.295 22.3692 110.126 20.6199 111.033 19.4677ZM104.047 30.098C105.008 28.9386 106.713 28.8091 107.858 29.8039C111.879 33.2952 114.966 38.4511 116.547 44.324C118.127 50.1973 118.042 56.2004 116.313 61.2263C116.018 62.0763 115.337 62.7208 114.483 62.9488C113.953 63.0902 113.393 63.0622 112.868 62.8672C111.461 62.3329 110.719 60.7381 111.212 59.3097C112.581 55.3288 112.625 50.4998 111.337 45.7142C110.049 40.9255 107.587 36.7684 104.402 34.0028C103.258 33.011 103.1 31.2604 104.047 30.098Z" fill="url(#paint1_linear_2034_888)" fill-opacity="0.35"/><path d="M77.6484 14.7267L78.1536 16.6338L78.1606 16.6319L77.6484 14.7267ZM89.7417 20.2535L91.4608 19.2875C91.4501 19.2686 91.4391 19.2499 91.4278 19.2313L89.7417 20.2535ZM92.3903 26.2337L90.5472 26.9362L90.5493 26.9417L92.3903 26.2337ZM93.0842 28.0276L91.2433 28.7355C91.247 28.745 91.2507 28.7545 91.2545 28.7639L93.0842 28.0276ZM104.564 70.6705L102.61 70.9462C102.612 70.9582 102.614 70.9702 102.616 70.9822L104.564 70.6705ZM104.883 72.6363L102.934 72.948L102.936 72.958L104.883 72.6363ZM105.577 78.95L107.551 78.9964C107.551 78.977 107.551 78.9576 107.551 78.9381L105.577 78.95ZM97.9773 89.8392L98.4896 91.7443L97.9773 89.8392ZM97.5383 89.9513L97.0803 88.0325C97.0622 88.0367 97.0441 88.0413 97.026 88.0461L97.5383 89.9513ZM90.1447 88.9022L91.008 87.1306C90.9959 87.1246 90.9836 87.1188 90.9713 87.1131L90.1447 88.9022ZM72.1012 80.5575L72.9278 78.7684C72.5086 78.5745 72.0348 78.5334 71.5889 78.6523L72.1012 80.5575ZM64.5328 82.5762L65.045 84.4813L65.0451 84.4813L64.5328 82.5762ZM50.7398 74.7164L52.5722 73.9867C52.5679 73.9758 52.5634 73.965 52.5589 73.9542L50.7398 74.7164ZM44.3596 51.0172L42.4017 51.2636C42.403 51.2737 42.4043 51.2838 42.4058 51.2939L44.3596 51.0172ZM52.4343 37.6341L52.9465 39.5393L52.9466 39.5393L52.4343 37.6341ZM60.0027 35.6155L60.515 37.5206C60.9625 37.4012 61.3534 37.1284 61.6193 36.7497L60.0027 35.6155ZM71.2039 19.6637L72.8204 20.7979C72.8274 20.788 72.8342 20.7781 72.841 20.7681L71.2039 19.6637ZM111.033 19.4677L109.488 18.2386L109.481 18.247L111.033 19.4677ZM114.716 19.2085L113.395 20.6711L113.4 20.6749L114.716 19.2085ZM127.95 41.8228L129.856 41.3141L129.856 41.3141L127.95 41.8228ZM127.844 67.9996L125.968 67.3854L125.967 67.3877L127.844 67.9996ZM126.087 69.7036L126.6 71.6087L126.6 71.6087L126.087 69.7036ZM124.527 69.6075L123.798 71.4385C123.802 71.4402 123.807 71.442 123.811 71.4437L124.527 69.6075ZM122.89 66.043L121.013 65.4295L121.011 65.4335L122.89 66.043ZM122.919 43.1654L124.825 42.6567L124.825 42.6567L122.919 43.1654ZM111.409 23.37L110.09 24.8349L110.091 24.836L111.409 23.37ZM104.047 30.098L102.526 28.8388C102.523 28.843 102.519 28.8471 102.516 28.8513L104.047 30.098ZM107.858 29.8039L106.564 31.2908L106.564 31.2912L107.858 29.8039ZM116.547 44.324L118.453 43.8153L118.453 43.8152L116.547 44.324ZM116.313 61.2263L118.178 61.8741L118.18 61.8703L116.313 61.2263ZM114.483 62.9488L114.995 64.8539L114.995 64.8538L114.483 62.9488ZM112.868 62.8672L112.169 64.7102C112.174 64.7119 112.178 64.7135 112.183 64.7152L112.868 62.8672ZM111.212 59.3097L113.078 59.9551L113.079 59.9535L111.212 59.3097ZM111.337 45.7142L113.243 45.2054L113.243 45.2054L111.337 45.7142ZM104.402 34.0028L105.696 32.5156L105.694 32.5144L104.402 34.0028ZM77.6484 14.7267L78.1606 16.6319C81.5582 15.7259 85.6242 17.2803 88.0556 21.2756L89.7417 20.2535L91.4278 19.2313C88.2157 13.9532 82.4594 11.4021 77.1362 12.8215L77.6484 14.7267ZM89.7417 20.2535L88.0227 21.2194C89.0447 23.0307 89.7833 24.9439 90.5472 26.9362L92.3903 26.2337L94.2334 25.5313C93.4834 23.5754 92.6485 21.3925 91.4608 19.2875L89.7417 20.2535ZM92.3903 26.2337L90.5493 26.9417L91.2433 28.7355L93.0842 28.0276L94.9252 27.3196L94.2312 25.5257L92.3903 26.2337ZM93.0842 28.0276L91.2545 28.7639C92.4058 31.6085 95.0141 40.5344 97.479 49.6906C99.9437 58.8459 102.172 67.8864 102.61 70.9462L104.564 70.6705L106.518 70.3947C106.039 67.0466 103.734 57.7464 101.291 48.6727C98.8486 39.5997 96.1755 30.4082 94.914 27.2912L93.0842 28.0276ZM104.564 70.6705L102.616 70.9822L102.934 72.948L104.883 72.6363L106.831 72.3245L106.513 70.3588L104.564 70.6705ZM104.883 72.6363L102.936 72.958C103.27 74.9555 103.587 76.8585 103.603 78.9618L105.577 78.95L107.551 78.9381C107.532 76.4781 107.158 74.2806 106.83 72.3146L104.883 72.6363ZM105.577 78.95L103.604 78.9035C103.501 83.6216 100.894 87.0196 97.4651 87.934L97.9773 89.8392L98.4896 91.7443C103.949 90.2885 107.418 85.0913 107.551 78.9964L105.577 78.95ZM97.9773 89.8392L97.4651 87.934C97.3251 87.9713 97.2091 88.002 97.0803 88.0325L97.5383 89.9513L97.9962 91.8701C98.1851 91.8254 98.3494 91.7817 98.4896 91.7443L97.9773 89.8392ZM97.5383 89.9513L97.026 88.0461C95.22 88.5278 92.662 87.9372 91.008 87.1306L90.1447 88.9022L89.2813 90.6739C91.3583 91.6868 94.9487 92.6837 98.0505 91.8564L97.5383 89.9513ZM90.1447 88.9022L90.9713 87.1131L72.9278 78.7684L72.1012 80.5575L71.2746 82.3466L89.318 90.6913L90.1447 88.9022ZM72.1012 80.5575L71.5889 78.6523L64.0205 80.671L64.5328 82.5762L65.0451 84.4813L72.6135 82.4626L72.1012 80.5575ZM64.5328 82.5762L64.0206 80.671C59.3203 81.9244 54.8083 79.5698 52.5722 73.9867L50.7398 74.7164L48.9074 75.4461C51.7432 82.5265 58.0618 86.3436 65.045 84.4813L64.5328 82.5762ZM50.7398 74.7164L52.5589 73.9542C49.9825 67.839 47.1756 56.7431 46.3134 50.7405L44.3596 51.0172L42.4058 51.2939C43.3058 57.5599 46.1884 68.9931 48.9207 75.4785L50.7398 74.7164ZM44.3596 51.0172L46.3175 50.7707C45.6005 45.1639 48.4872 40.7285 52.9465 39.5393L52.4343 37.6341L51.922 35.729C45.2413 37.5106 41.4781 44.0413 42.4017 51.2636L44.3596 51.0172ZM52.4343 37.6341L52.9466 39.5393L60.515 37.5206L60.0027 35.6155L59.4904 33.7103L51.922 35.729L52.4343 37.6341ZM60.0027 35.6155L61.6193 36.7497L72.8204 20.7979L71.2039 19.6637L69.5873 18.5294L58.3861 34.4812L60.0027 35.6155ZM71.2039 19.6637L72.841 20.7681C73.3834 19.9646 74.2423 19.0342 75.2457 18.2359C76.261 17.4281 77.2931 16.8598 78.1536 16.6337L77.6484 14.7267L77.1432 12.8197C75.5691 13.2333 74.0472 14.1435 72.783 15.1493C71.5069 16.1646 70.3609 17.3829 69.5668 18.5592L71.2039 19.6637ZM111.033 19.4677L112.579 20.6967C112.685 20.5634 112.813 20.5068 112.942 20.4979C113.073 20.4888 113.238 20.5292 113.395 20.6711L114.716 19.2085L116.038 17.7458C114.117 16.0138 111.142 16.1611 109.488 18.2386L111.033 19.4677ZM114.716 19.2085L113.4 20.6749C119.146 25.827 123.669 33.5073 126.043 42.3315L127.95 41.8228L129.856 41.3141C127.315 31.8726 122.437 23.4834 116.033 17.742L114.716 19.2085ZM127.95 41.8228L126.043 42.3315C128.419 51.1618 128.358 60.0622 125.968 67.3854L127.844 67.9996L129.721 68.6137C132.384 60.4528 132.397 50.7616 129.856 41.3141L127.95 41.8228ZM127.844 67.9996L125.967 67.3877C125.887 67.6325 125.721 67.7595 125.575 67.7986L126.087 69.7036L126.6 71.6087C128.104 71.2074 129.252 70.0576 129.722 68.6114L127.844 67.9996ZM126.087 69.7036L125.575 67.7986C125.484 67.8226 125.376 67.8231 125.243 67.7713L124.527 69.6075L123.811 71.4437C124.698 71.7901 125.667 71.8577 126.6 71.6087L126.087 69.7036ZM124.527 69.6075L125.257 67.7765C124.888 67.6293 124.616 67.1218 124.768 66.6525L122.89 66.043L121.011 65.4335C120.242 67.8124 121.433 70.495 123.798 71.4385L124.527 69.6075ZM122.89 66.043L124.767 66.6565C127.089 59.5306 127.072 51.0083 124.825 42.6567L122.919 43.1654L121.012 43.674C123.097 51.4236 123.059 59.1532 121.013 65.4295L122.89 66.043ZM122.919 43.1654L124.825 42.6567C122.578 34.3081 118.315 26.9187 112.726 21.904L111.409 23.37L110.091 24.836C115.014 29.2528 118.928 35.9275 121.012 43.6741L122.919 43.1654ZM111.409 23.37L112.727 21.9051C112.363 21.5773 112.341 20.9989 112.586 20.6883L111.033 19.4677L109.481 18.247C107.911 20.2409 108.228 23.1612 110.09 24.8349L111.409 23.37ZM104.047 30.098L105.569 31.3572C105.814 31.0617 106.245 31.0133 106.564 31.2908L107.858 29.8039L109.152 28.317C107.181 26.6048 104.203 26.8156 102.526 28.8388L104.047 30.098ZM107.858 29.8039L106.564 31.2912C110.248 34.4892 113.147 39.2841 114.641 44.8328L116.547 44.324L118.453 43.8152C116.785 37.618 113.51 32.1012 109.151 28.3166L107.858 29.8039ZM116.547 44.324L114.641 44.8328C116.134 50.3817 116.03 55.9787 114.446 60.5823L116.313 61.2263L118.18 61.8703C120.054 56.4221 120.121 50.0129 118.453 43.8153L116.547 44.324ZM116.313 61.2263L114.447 60.5785C114.36 60.8305 114.172 60.9897 113.97 61.0437L114.483 62.9488L114.995 64.8538C116.501 64.4519 117.677 63.3222 118.178 61.8741L116.313 61.2263ZM114.483 62.9488L113.97 61.0437C113.843 61.0777 113.701 61.0741 113.553 61.0193L112.868 62.8672L112.183 64.7152C113.084 65.0503 114.063 65.1026 114.995 64.8539L114.483 62.9488ZM112.868 62.8672L113.566 61.0243C113.168 60.8731 112.929 60.3872 113.078 59.9551L111.212 59.3097L109.346 58.6642C108.509 61.0889 109.754 63.7927 112.169 64.7102L112.868 62.8672ZM111.212 59.3097L113.079 59.9535C114.597 55.5391 114.615 50.302 113.243 45.2054L111.337 45.7142L109.431 46.2229C110.635 50.6976 110.566 55.1185 109.345 58.6658L111.212 59.3097ZM111.337 45.7142L113.243 45.2054C111.871 40.1057 109.227 35.5823 105.696 32.5156L104.402 34.0028L103.109 35.49C105.947 37.9546 108.226 41.7453 109.431 46.2229L111.337 45.7142ZM104.402 34.0028L105.694 32.5144C105.348 32.2139 105.311 31.6729 105.579 31.3447L104.047 30.098L102.516 28.8513C100.889 30.8479 101.168 33.8082 103.11 35.4912L104.402 34.0028Z" fill="url(#paint2_linear_2034_888)" mask="url(#path-2-outside-1_2034_888)"/><defs><linearGradient id="paint0_linear_2034_888" x1="42.4824" y1="7.58253" x2="28.4334" y2="60.2285" gradientUnits="userSpaceOnUse"><stop stop-color="#BAB9FF"/><stop offset="1" stop-color="#6074F1"/></linearGradient><linearGradient id="paint1_linear_2034_888" x1="77.327" y1="14.8125" x2="97.3903" y2="89.9959" gradientUnits="userSpaceOnUse"><stop stop-color="#BAB9FF"/><stop offset="1" stop-color="#6074F1"/></linearGradient><linearGradient id="paint2_linear_2034_888" x1="52.1089" y1="30.9249" x2="116.065" y2="81.1351" gradientUnits="userSpaceOnUse"><stop stop-color="white" stop-opacity="0.25"/><stop offset="1" stop-color="white" stop-opacity="0"/></linearGradient></defs></svg>