<svg viewBox="0 0 24 24" fill="none" xmlns="http://www.w3.org/2000/svg"><path d="M22.6926 7.64896C22.6926 7.64896 22.4796 6.1518 21.8233 5.49441C20.9924 4.6292 20.0634 4.62496 19.6373 4.57406C16.5861 4.35352 12.0051 4.35352 12.0051 4.35352H11.9966C11.9966 4.35352 7.41566 4.35352 4.36452 4.57406C3.93839 4.62496 3.00941 4.6292 2.17844 5.49441C1.52219 6.1518 1.31339 7.64896 1.31339 7.64896C1.31339 7.64896 1.0918 9.40908 1.0918 11.165V12.8106C1.0918 14.5664 1.30913 16.3266 1.30913 16.3266C1.30913 16.3266 1.52219 17.8237 2.17418 18.4811C3.00515 19.3463 4.09606 19.3166 4.58185 19.4099C6.32901 19.5753 12.0009 19.6262 12.0009 19.6262C12.0009 19.6262 16.5861 19.6178 19.6373 19.4015C20.0634 19.3506 20.9924 19.3463 21.8233 18.4811C22.4796 17.8237 22.6926 16.3266 22.6926 16.3266C22.6926 16.3266 22.91 14.5707 22.91 12.8106V11.165C22.91 9.40908 22.6926 7.64896 22.6926 7.64896ZM9.74663 14.8082V8.70503L15.6401 11.7672L9.74663 14.8082Z" fill="white"/></svg>